<?xml version="1.0" encoding="UTF-8" standalone="no"?>
<!-- Created with PhotoLine 23.01 (www.pl32.de) -->
<!DOCTYPE svg PUBLIC "-//W3C//DTD SVG 1.1//EN" "http://www.w3.org/Graphics/SVG/1.1/DTD/svg11.dtd">
<svg width="642" height="518" viewBox="0 0 642 518" version="1.1" xmlns="http://www.w3.org/2000/svg" xmlns:xlink="http://www.w3.org/1999/xlink">
  <g id="Vektor" transform="matrix(0.541542 0 0 1 272.641265 -12.185199)">
    <path transform="matrix(1.846577 0 0 1 -503.453216 12.185199)" d="M608.79 453.58 L628.02 439.22 L642.26 518.45 L570.33 482.3 L589.56 467.94 C589.57 467.94 589.55 467.92 589.54 467.92 C569.34 440.73 546.97 407.58 519.62 387.06 C491.12 365.68 449.88 354.11 416.11 342.77 L415.89 342.7 C364.36 324.25 326.89 297.07 311.8 241.37 C302.65 207.61 303.63 171.8 303.2 137.17 L327.2 136.87 C327.93 195.12 324.36 259.39 377.29 297.27 C391.54 307.46 407.46 314.19 423.86 320.06 C461.02 332.54 502.38 344.11 534.03 367.84 C564.03 390.32 586.67 423.82 608.79 453.58 Z"/>
  </g>
</svg>
